<mxfile host="app.diagrams.net" modified="2021-08-23T10:20:24.573Z" agent="5.0 (Windows NT 10.0; Win64; x64) AppleWebKit/537.36 (KHTML, like Gecko) Chrome/92.0.4515.159 Safari/537.36 Edg/92.0.902.78" etag="flnSSa1iMlvo1W59sJRt" version="14.9.8" type="github">
  <diagram name="Page-1" id="90a13364-a465-7bf4-72fc-28e22215d7a0">
    <mxGraphModel dx="1730" dy="950" grid="1" gridSize="10" guides="1" tooltips="1" connect="1" arrows="1" fold="1" page="1" pageScale="1.5" pageWidth="1169" pageHeight="826" background="none" math="0" shadow="0">
      <root>
        <mxCell id="0" style=";html=1;" />
        <mxCell id="1" style=";html=1;" parent="0" />
        <mxCell id="DPt9-Xgg2FiwXUiJCqeW-1" value="手机" style="whiteSpace=wrap;html=1;shadow=1;fontSize=18;fillColor=#f5f5f5;strokeColor=#666666;" vertex="1" parent="1">
          <mxGeometry x="1240" y="306" width="130" height="564" as="geometry" />
        </mxCell>
        <mxCell id="DPt9-Xgg2FiwXUiJCqeW-2" value="" style="whiteSpace=wrap;html=1;shadow=1;fontSize=20;strokeColor=#666666;strokeWidth=2;dashed=1;fillColor=none;" vertex="1" parent="1">
          <mxGeometry x="570" y="290" width="610" height="580" as="geometry" />
        </mxCell>
        <mxCell id="3a17f1ce550125da-1" value="嵌入式软件代码、低功耗控制、BLE协议栈" style="whiteSpace=wrap;html=1;shadow=1;fontSize=20;fillColor=#f5f5f5;strokeColor=#666666;strokeWidth=2;dashed=1;" parent="1" vertex="1">
          <mxGeometry x="604" y="330" width="556" height="76" as="geometry" />
        </mxCell>
        <mxCell id="3a17f1ce550125da-16" style="edgeStyle=elbowEdgeStyle;rounded=0;html=1;startArrow=none;startFill=0;jettySize=auto;orthogonalLoop=1;fontSize=18;elbow=vertical;" parent="1" source="3a17f1ce550125da-2" target="3a17f1ce550125da-7" edge="1">
          <mxGeometry relative="1" as="geometry" />
        </mxCell>
        <mxCell id="3a17f1ce550125da-2" value="嵌入式微控制器&lt;br&gt;&lt;br&gt;24bitsADC" style="whiteSpace=wrap;html=1;shadow=1;fontSize=18;fillColor=#f5f5f5;strokeColor=#666666;" parent="1" vertex="1">
          <mxGeometry x="787" y="440" width="170" height="294" as="geometry" />
        </mxCell>
        <mxCell id="3a17f1ce550125da-4" value="蓝牙BLE模块" style="whiteSpace=wrap;html=1;shadow=1;fontSize=18;fillColor=#f5f5f5;strokeColor=#666666;" parent="1" vertex="1">
          <mxGeometry x="1037" y="444" width="120" height="60" as="geometry" />
        </mxCell>
        <mxCell id="3a17f1ce550125da-5" value="热电堆" style="whiteSpace=wrap;html=1;shadow=1;fontSize=18;fillColor=#f5f5f5;strokeColor=#666666;" parent="1" vertex="1">
          <mxGeometry x="1037" y="524" width="120" height="60" as="geometry" />
        </mxCell>
        <mxCell id="3a17f1ce550125da-6" value="热敏电阻" style="whiteSpace=wrap;html=1;shadow=1;fontSize=18;fillColor=#f5f5f5;strokeColor=#666666;" parent="1" vertex="1">
          <mxGeometry x="1037" y="604" width="120" height="60" as="geometry" />
        </mxCell>
        <mxCell id="3a17f1ce550125da-7" value="Freq. Count" style="whiteSpace=wrap;html=1;shadow=1;fontSize=18;fillColor=#f5f5f5;strokeColor=#666666;" parent="1" vertex="1">
          <mxGeometry x="1037" y="684" width="120" height="60" as="geometry" />
        </mxCell>
        <mxCell id="3a17f1ce550125da-20" style="edgeStyle=elbowEdgeStyle;rounded=0;html=1;startArrow=none;startFill=0;jettySize=auto;orthogonalLoop=1;fontSize=18;elbow=vertical;" parent="1" source="3a17f1ce550125da-8" target="3a17f1ce550125da-2" edge="1">
          <mxGeometry relative="1" as="geometry">
            <Array as="points">
              <mxPoint x="757" y="514" />
            </Array>
          </mxGeometry>
        </mxCell>
        <mxCell id="3a17f1ce550125da-8" value="基准电压" style="whiteSpace=wrap;html=1;shadow=1;fontSize=18;fillColor=#f5f5f5;strokeColor=#666666;" parent="1" vertex="1">
          <mxGeometry x="597" y="460" width="120" height="86" as="geometry" />
        </mxCell>
        <mxCell id="3a17f1ce550125da-21" style="edgeStyle=elbowEdgeStyle;rounded=0;html=1;startArrow=none;startFill=0;jettySize=auto;orthogonalLoop=1;fontSize=18;elbow=vertical;" parent="1" source="3a17f1ce550125da-9" target="3a17f1ce550125da-2" edge="1">
          <mxGeometry relative="1" as="geometry" />
        </mxCell>
        <mxCell id="3a17f1ce550125da-9" value="晶体振荡器" style="whiteSpace=wrap;html=1;shadow=1;fontSize=18;fillColor=#f5f5f5;strokeColor=#666666;" parent="1" vertex="1">
          <mxGeometry x="597" y="564" width="120" height="60" as="geometry" />
        </mxCell>
        <mxCell id="3a17f1ce550125da-10" value="LCD显示、指示灯、按键" style="whiteSpace=wrap;html=1;shadow=1;fontSize=18;fillColor=#f5f5f5;strokeColor=#666666;" parent="1" vertex="1">
          <mxGeometry x="720" y="780" width="310" height="66" as="geometry" />
        </mxCell>
        <mxCell id="3a17f1ce550125da-11" value="纽扣电池供电" style="whiteSpace=wrap;html=1;shadow=1;fontSize=18;fillColor=#f5f5f5;strokeColor=#666666;" parent="1" vertex="1">
          <mxGeometry x="597" y="640" width="120" height="60" as="geometry" />
        </mxCell>
        <mxCell id="DPt9-Xgg2FiwXUiJCqeW-4" value="" style="endArrow=classic;startArrow=classic;html=1;exitX=1;exitY=0.5;exitDx=0;exitDy=0;entryX=-0.027;entryY=0.277;entryDx=0;entryDy=0;entryPerimeter=0;" edge="1" parent="1">
          <mxGeometry width="50" height="50" relative="1" as="geometry">
            <mxPoint x="957.24" y="473.5" as="sourcePoint" />
            <mxPoint x="1037.0000000000002" y="474.01" as="targetPoint" />
          </mxGeometry>
        </mxCell>
        <mxCell id="DPt9-Xgg2FiwXUiJCqeW-5" value="" style="endArrow=classic;html=1;exitX=0;exitY=0.5;exitDx=0;exitDy=0;" edge="1" parent="1" source="3a17f1ce550125da-6">
          <mxGeometry width="50" height="50" relative="1" as="geometry">
            <mxPoint x="980" y="610" as="sourcePoint" />
            <mxPoint x="960" y="633" as="targetPoint" />
          </mxGeometry>
        </mxCell>
        <mxCell id="DPt9-Xgg2FiwXUiJCqeW-6" value="" style="endArrow=classic;html=1;entryX=1.02;entryY=0.657;entryDx=0;entryDy=0;entryPerimeter=0;" edge="1" parent="1">
          <mxGeometry width="50" height="50" relative="1" as="geometry">
            <mxPoint x="1035" y="546" as="sourcePoint" />
            <mxPoint x="958.0000000000001" y="545.9979999999999" as="targetPoint" />
          </mxGeometry>
        </mxCell>
        <mxCell id="DPt9-Xgg2FiwXUiJCqeW-7" style="edgeStyle=elbowEdgeStyle;rounded=0;html=1;startArrow=none;startFill=0;jettySize=auto;orthogonalLoop=1;fontSize=18;elbow=vertical;" edge="1" parent="1">
          <mxGeometry relative="1" as="geometry">
            <mxPoint x="717" y="670" as="sourcePoint" />
            <mxPoint x="787" y="670" as="targetPoint" />
          </mxGeometry>
        </mxCell>
        <mxCell id="DPt9-Xgg2FiwXUiJCqeW-9" value="" style="endArrow=classic;startArrow=classic;html=1;entryX=0.453;entryY=1.011;entryDx=0;entryDy=0;entryPerimeter=0;" edge="1" parent="1" target="3a17f1ce550125da-2">
          <mxGeometry width="50" height="50" relative="1" as="geometry">
            <mxPoint x="864" y="780" as="sourcePoint" />
            <mxPoint x="900" y="730" as="targetPoint" />
          </mxGeometry>
        </mxCell>
        <mxCell id="DPt9-Xgg2FiwXUiJCqeW-13" value="APP&lt;br&gt;(根据用户选择的不同人体部位的选项计算出体温)" style="whiteSpace=wrap;html=1;shadow=1;fontSize=18;fillColor=#f5f5f5;strokeColor=#666666;" vertex="1" parent="1">
          <mxGeometry x="1245" y="320" width="120" height="244" as="geometry" />
        </mxCell>
        <mxCell id="DPt9-Xgg2FiwXUiJCqeW-21" value="" style="endArrow=classic;startArrow=classic;html=1;" edge="1" parent="1">
          <mxGeometry width="50" height="50" relative="1" as="geometry">
            <mxPoint x="1155" y="473.16999999999996" as="sourcePoint" />
            <mxPoint x="1245" y="473.16999999999996" as="targetPoint" />
          </mxGeometry>
        </mxCell>
      </root>
    </mxGraphModel>
  </diagram>
</mxfile>
